<?xml version="1.0" encoding="UTF-8" standalone="no"?>
<!-- Created with Inkscape (http://www.inkscape.org/) -->

<svg
   width="150mm"
   height="150mm"
   viewBox="0 0 150 150"
   version="1.1"
   id="svg1"
   xml:space="preserve"
   inkscape:version="1.4 (86a8ad7, 2024-10-11)"
   sodipodi:docname="bt-icon.svg"
   xmlns:inkscape="http://www.inkscape.org/namespaces/inkscape"
   xmlns:sodipodi="http://sodipodi.sourceforge.net/DTD/sodipodi-0.dtd"
   xmlns="http://www.w3.org/2000/svg"
   xmlns:svg="http://www.w3.org/2000/svg"><sodipodi:namedview
     id="namedview1"
     pagecolor="#ffffff"
     bordercolor="#000000"
     borderopacity="0.25"
     inkscape:showpageshadow="2"
     inkscape:pageopacity="0.0"
     inkscape:pagecheckerboard="0"
     inkscape:deskcolor="#d1d1d1"
     inkscape:document-units="mm"
     inkscape:zoom="0.32000001"
     inkscape:cx="179.6875"
     inkscape:cy="54.687499"
     inkscape:window-width="1920"
     inkscape:window-height="1111"
     inkscape:window-x="-9"
     inkscape:window-y="-9"
     inkscape:window-maximized="1"
     inkscape:current-layer="g2" /><defs
     id="defs1" /><g
     inkscape:label="Capa 1"
     inkscape:groupmode="layer"
     id="layer1"><g
       id="g1"
       transform="matrix(1.1999978,0,0,1.1999978,-187.80588,-192.76666)"><circle
         style="fill:#f5ecdd;fill-opacity:1;stroke:none;stroke-width:14.1219;stroke-linecap:round;stroke-linejoin:round;paint-order:markers stroke fill"
         id="path1"
         cx="74.999992"
         cy="74.999802"
         r="62.5" /><path
         id="path11-2"
         style="fill:#253c4c;fill-opacity:1;stroke:none;stroke-width:0.122058"
         d="m 74.999995,12.500196 a 62.5,62.5 0 0 0 -62.50006,62.49954 62.5,62.5 0 0 0 16.52096,42.183994 c 1.39524,-2.09195 2.84649,-4.23194 4.37596,-6.46834 A 55,55 0 0 1 19.999735,74.999736 55,55 0 0 1 74.999995,19.999997 55,55 0 0 1 107.60886,30.744044 c 2.12455,-1.514892 4.23304,-2.992471 6.34535,-4.456059 A 62.5,62.5 0 0 0 74.999995,12.500196 Z m 45.979115,20.316073 c -1.3953,2.092017 -2.84694,4.231867 -4.37648,6.468337 A 55,55 0 0 1 129.99975,74.999736 55,55 0 0 1 74.999995,130 55,55 0 0 1 42.387515,119.25337 c -2.13567,1.52288 -4.22381,2.98417 -6.34689,4.45503 a 62.5,62.5 0 0 0 38.95937,13.7914 62.5,62.5 0 0 0 62.500065,-62.500064 62.5,62.5 0 0 0 -16.52095,-42.183467 z" /><path
         style="fill:#253c4c;fill-opacity:1;stroke:none"
         d="m 74.505745,25.595523 c -1.6292,0.70311 -1.5476,8.877563 0.9828,8.09103 1.9296,-0.59978 1.8644,-9.31973 -0.9828,-8.09103 M 39.340241,38.897176 c -1.9055,1.24748 3.5853,6.9696 5.3876,5.80389 2.0838,-1.34775 -3.3892,-7.11218 -5.3876,-5.80389 m -13.3018,34.27436 c -1.3983,0.42788 -1.6373,2.12277 -0.2475,2.75648 1.3833,0.63073 4.9049,0.61683 6.3057,0.0306 1.2895,-0.53958 1.2895,-2.16261 0,-2.70219 -1.4161,-0.59264 -4.5981,-0.53173 -6.0582,-0.0849 m 92.074999,0 c -1.3822,0.42295 -1.6658,2.17688 -0.2475,2.78712 1.3933,0.59946 4.9085,0.58469 6.3057,0 1.2895,-0.53958 1.2895,-2.16261 0,-2.70219 -1.4161,-0.59262 -4.5982,-0.53173 -6.0582,-0.0849 m -12.4183,31.029934 c -0.9873,0.30097 -1.0771,1.38167 -0.62209,2.15607 0.7275,1.23807 3.6814,4.77439 5.327,4.27274 0.9874,-0.30095 1.0771,-1.38167 0.62209,-2.15607 -0.72749,-1.23807 -3.68129,-4.77439 -5.327,-4.27274 m -30.957295,11.90625 c -1.8708,0.57829 -1.9506,9.02853 0.7383,8.37969 1.9628,-0.47363 1.7764,-9.157 -0.7383,-8.37969"
         id="path28-6"
         sodipodi:nodetypes="csccsccsssccsssccsssccsc" /><path
         id="path11-7"
         style="fill:#253c4c;fill-opacity:1;stroke:#f5ecdd;stroke-width:5.29167;stroke-dasharray:none;stroke-opacity:1;paint-order:markers stroke fill"
         d="m 59.354555,76.547966 c 0,0 -36.3348,49.708724 -34.60446,51.439064 1.73034,1.73034 36.19314,-24.12876 36.19314,-24.12876 2.16667,-9.706894 12.11877,-13.821084 -1.58868,-27.310304 z"
         sodipodi:nodetypes="cscc" /><path
         style="fill:#253c4c;fill-opacity:1;stroke:#f5ecdd;stroke-width:5.29167;stroke-linecap:round;stroke-linejoin:round;stroke-dasharray:none;stroke-opacity:1;paint-order:markers stroke fill"
         d="m 124.99358,21.929943 c -3.59456,-0.0564 -41.094465,27.507493 -41.094465,27.507493 l 0.98757,14.69774 8.28042,6.31428 c 0,0 33.813135,-46.705973 32.082795,-48.436313 -0.0541,-0.0541 -0.14037,-0.0814 -0.25632,-0.0832 z"
         id="path11-1"
         sodipodi:nodetypes="ccccsc" /><path
         style="fill:#7d5b3e;fill-opacity:1;stroke:#f5ecdd;stroke-width:5.29167;stroke-linecap:round;stroke-linejoin:round;stroke-dasharray:none;stroke-opacity:1;paint-order:markers stroke fill"
         d="m 72.054565,82.870396 h 6.08542 c 0.38791,-9.03573 7.92975,-16.25233 7.92975,-25.13541 0,-5.5008 -3.40146,-11.34153 -6.91266,-15.34584 -0.87765,-1.00089 -2.71186,-3.63477 -4.19209,-3.61269 -1.23284,0.0184 -2.65238,1.99788 -3.41591,2.81894 -3.10181,3.33562 -5.53769,7.51867 -6.78973,11.90625 -2.86346,10.03453 6.04986,19.51472 7.29521,29.36875 m -21.96041,0.79375 c 0,-5.1286 3.56863,-10.78874 9.26041,-7.11618 2.35381,1.51877 3.28695,4.70635 5.39497,6.0505 1.16016,0.73975 3.58588,0.27193 4.92378,0.27193 -0.01,-3.59678 -1.28269,-7.05198 -2.68564,-10.31875 -1.20654,-2.80943 -2.61072,-5.55203 -4.98748,-7.55654 -1.85529,-1.56473 -3.95231,-2.7095 -6.34978,-3.1695 -5.42648,-1.04116 -11.21894,1.03763 -13.37086,6.49271 -2.31512,5.86878 0.6156,15.0161 7.8146,15.34583 m 30.1625,-0.79375 c 1.30915,0 3.45955,0.41574 4.65267,-0.15965 1.78655,-0.86157 3.05659,-4.42885 4.87233,-5.76366 5.84949,-4.30022 10.16919,0.95846 10.05417,6.71706 6.935765,-0.31696 10.012765,-8.71052 8.106945,-14.55208 -1.81077,-5.55021 -7.29751,-8.2441 -12.869455,-7.44263 -2.31197,0.33255 -4.51211,1.31251 -6.34979,2.75669 -2.20744,1.73478 -3.78026,4.00149 -4.94563,6.53802 -1.81318,3.94656 -2.53255,7.75532 -3.52124,11.90625 m -17.4519,2.55398 c -2.3363,0.77161 -1.89454,3.99818 0.25499,4.68167 1.79843,0.57185 4.2109,0.17271 6.0844,0.17271 h 12.43542 c 1.90034,0 4.93432,0.5678 6.60295,-0.4916 1.895,-1.20314 1.49467,-4.0574 -0.78232,-4.47506 -5.19755,-0.95337 -11.37836,-0.0604 -16.66855,-0.0604 -2.38451,0 -5.65227,-0.57852 -7.92689,0.17271 m -5.83145,10.93979 c 0.0831,3.902734 3.83246,8.378384 7.9373,5.822254 2.95315,-1.83895 4.69317,-6.440504 4.7627,-9.791004 -1.05299,0 -2.6308,-0.29375 -3.60107,0.15965 -0.8988,0.41998 -1.51253,1.78398 -2.22385,2.47475 -2.01966,1.96131 -4.29134,2.15337 -6.87508,1.33435 m 15.08125,-3.96875 c -0.29405,2.27693 -0.91295,4.57233 -1.9807,6.61458 -0.96662,1.848844 -2.52136,3.646184 -1.58239,5.820834 0.79463,1.84036 4.34656,6.17505 6.47351,6.38511 2.34304,0.23142 6.51917,-4.8117 6.82159,-6.91427 0.27134,-1.88639 -0.94756,-3.42596 -1.72591,-5.027094 -1.02116,-2.10064 -1.87196,-4.53128 -1.92068,-6.87916 h -6.08542 m 8.20209,0 c 0.26361,3.22718 1.68793,7.680184 4.49893,9.563584 4.06708,2.72496 8.27671,-1.1956 8.46565,-5.330254 -1.90823,0.43622 -3.69579,0.86907 -5.55625,-0.0368 -1.88516,-0.91784 -2.14998,-2.83888 -3.62434,-3.92465 -0.86413,-0.63636 -2.75804,-0.27193 -3.78399,-0.27193"
         id="path10-9-5"
         sodipodi:nodetypes="ccsssssccsscssssccsscssssccssssssccscssccssssscccscssc" /></g><g
       id="g2"
       transform="translate(-309.96895,1.529115)"><path
         style="fill:#f5ecdd;fill-opacity:1;stroke-width:0.0979864"
         d="m 308.49512,-168.60704 c -12.24219,0 -22.09788,9.85568 -22.09788,22.09787 v 105.803877 c 0,12.24219 9.85569,22.09788 22.09788,22.09788 H 414.2995 c 12.24219,0 22.09788,-9.85569 22.09788,-22.09788 V -146.50917 c 0,-12.24219 -9.85569,-22.09787 -22.09788,-22.09787 z"
         id="rect5-8-8" /><path
         id="rect5-4"
         style="fill:#7d5b3e;fill-opacity:1;stroke-width:0.0979864"
         d="m 495.76934,37.386805 c -12.24219,0 -22.09788,-9.85568 -22.09788,-22.09788 V -90.514942 c 0,-12.242188 9.85569,-22.097878 22.09788,-22.097878 h 105.80438 c 12.24219,0 22.09788,9.85569 22.09788,22.097878 V 15.288925 c 0,12.2422 -9.85569,22.09788 -22.09788,22.09788 z m 3.52691,-4.9997 h 98.75055 c 11.42605,0 20.62459,-9.19853 20.62459,-20.62458 v -98.751067 c 0,-11.426043 -9.19854,-20.624578 -20.62459,-20.624578 h -98.75055 c -11.42604,0 -20.62509,9.198535 -20.62509,20.624578 v 98.751067 c 0,11.42605 9.19905,20.62458 20.62509,20.62458 z" /><g
         id="g3"
         transform="matrix(0.95776498,0,0,0.95776508,16.259142,3.1030381)"><rect
           style="fill:#f5ecdd;fill-opacity:1;stroke:#7d5b3e;stroke-width:6.61459;stroke-linejoin:bevel;stroke-dasharray:none;stroke-opacity:1"
           id="rect1"
           width="150.00003"
           height="150.00002"
           x="309.96896"
           y="-1.5291239"
           ry="74.999992" /><path
           id="path11-2-8"
           style="fill:#253c4c;fill-opacity:1;stroke:none;stroke-width:0.122058"
           d="m 384.96895,10.971082 a 62.5,62.5 0 0 0 -62.50006,62.499541 62.5,62.5 0 0 0 16.52096,42.183987 c 1.39524,-2.09195 2.84649,-4.23194 4.37596,-6.46834 a 55,55 0 0 1 -13.39712,-35.715647 55,55 0 0 1 55.00026,-54.99974 55,55 0 0 1 32.60886,10.74405 c 2.12455,-1.51489 4.23304,-2.99247 6.34535,-4.45606 A 62.5,62.5 0 0 0 384.96895,10.971082 Z m 45.97911,20.316071 c -1.3953,2.09202 -2.84694,4.23187 -4.37648,6.46834 a 55,55 0 0 1 13.39712,35.71513 55,55 0 0 1 -54.99975,55.000257 55,55 0 0 1 -32.61248,-10.74663 c -2.13567,1.52288 -4.22381,2.98417 -6.34689,4.45503 a 62.5,62.5 0 0 0 38.95937,13.7914 62.5,62.5 0 0 0 62.50006,-62.500057 62.5,62.5 0 0 0 -16.52095,-42.18347 z" /><path
           style="fill:#253c4c;fill-opacity:1;stroke:none"
           d="m 384.4747,24.066413 c -1.6292,0.70311 -1.5476,8.87756 0.9828,8.09103 1.9296,-0.59978 1.8644,-9.31973 -0.9828,-8.09103 m -35.16551,13.30165 c -1.9055,1.24748 3.5853,6.9696 5.3876,5.80389 2.0838,-1.34775 -3.3892,-7.11218 -5.3876,-5.80389 m -13.3018,34.27436 c -1.3983,0.42788 -1.6373,2.12277 -0.2475,2.75648 1.3833,0.63073 4.9049,0.61683 6.3057,0.0306 1.2895,-0.53958 1.2895,-2.16261 0,-2.70219 -1.4161,-0.59264 -4.5981,-0.53173 -6.0582,-0.0849 m 92.075,0 c -1.3822,0.42295 -1.6658,2.17688 -0.2475,2.78712 1.3933,0.59946 4.9085,0.58469 6.3057,0 1.2895,-0.53958 1.2895,-2.16261 0,-2.70219 -1.4161,-0.59262 -4.5982,-0.53173 -6.0582,-0.0849 m -12.4183,31.029927 c -0.9873,0.30097 -1.0771,1.38167 -0.62209,2.15607 0.7275,1.23807 3.6814,4.77439 5.327,4.27274 0.9874,-0.30095 1.0771,-1.38167 0.62209,-2.15607 -0.72749,-1.23807 -3.68129,-4.77439 -5.327,-4.27274 m -30.95729,11.90625 c -1.8708,0.57829 -1.9506,9.02853 0.7383,8.37969 1.9628,-0.47363 1.7764,-9.157 -0.7383,-8.37969"
           id="path28-6-2"
           sodipodi:nodetypes="csccsccsssccsssccsssccsc" /><path
           id="path11-7-5"
           style="fill:#253c4c;fill-opacity:1;stroke:#f5ecdd;stroke-width:5.29167;stroke-dasharray:none;stroke-opacity:1;paint-order:markers stroke fill"
           d="m 369.32351,75.018853 c 0,0 -36.3348,49.708717 -34.60446,51.439057 1.73034,1.73034 36.19314,-24.12876 36.19314,-24.12876 2.16667,-9.706887 12.11877,-13.821077 -1.58868,-27.310297 z"
           sodipodi:nodetypes="cscc" /><path
           style="fill:#253c4c;fill-opacity:1;stroke:#f5ecdd;stroke-width:5.29167;stroke-linecap:round;stroke-linejoin:round;stroke-dasharray:none;stroke-opacity:1;paint-order:markers stroke fill"
           d="m 434.96253,20.400833 c -3.59456,-0.0564 -41.09446,27.50749 -41.09446,27.50749 l 0.98757,14.69774 8.28042,6.31428 c 0,0 33.81313,-46.70597 32.08279,-48.43631 -0.0541,-0.0541 -0.14037,-0.0814 -0.25632,-0.0832 z"
           id="path11-1-5"
           sodipodi:nodetypes="ccccsc" /><path
           style="fill:#7d5b3e;fill-opacity:1;stroke:#f5ecdd;stroke-width:5.29167;stroke-linecap:round;stroke-linejoin:round;stroke-dasharray:none;stroke-opacity:1;paint-order:markers stroke fill"
           d="m 382.02352,81.341283 h 6.08542 c 0.38791,-9.03573 7.92975,-16.25233 7.92975,-25.13541 0,-5.5008 -3.40146,-11.34153 -6.91266,-15.34584 -0.87765,-1.00089 -2.71186,-3.63477 -4.19209,-3.61269 -1.23284,0.0184 -2.65238,1.99788 -3.41591,2.81894 -3.10181,3.33562 -5.53769,7.51867 -6.78973,11.90625 -2.86346,10.03453 6.04986,19.51472 7.29521,29.36875 m -21.96041,0.79375 c 0,-5.1286 3.56863,-10.78874 9.26041,-7.11618 2.35381,1.51877 3.28695,4.70635 5.39497,6.0505 1.16016,0.73975 3.58588,0.27193 4.92378,0.27193 -0.01,-3.59678 -1.28269,-7.05198 -2.68564,-10.31875 -1.20654,-2.80943 -2.61072,-5.55203 -4.98748,-7.55654 -1.85529,-1.56473 -3.95231,-2.7095 -6.34978,-3.1695 -5.42648,-1.04116 -11.21894,1.03763 -13.37086,6.49271 -2.31512,5.86878 0.6156,15.0161 7.8146,15.34583 m 30.1625,-0.79375 c 1.30915,0 3.45955,0.41574 4.65267,-0.15965 1.78655,-0.86157 3.05659,-4.42885 4.87233,-5.76366 5.84949,-4.30022 10.16919,0.95846 10.05417,6.71706 6.93576,-0.31696 10.01276,-8.71052 8.10694,-14.55208 -1.81077,-5.55021 -7.29751,-8.2441 -12.86945,-7.44263 -2.31197,0.33255 -4.51211,1.31251 -6.34979,2.75669 -2.20744,1.73478 -3.78026,4.00149 -4.94563,6.53802 -1.81318,3.94656 -2.53255,7.75532 -3.52124,11.90625 m -17.4519,2.55398 c -2.3363,0.77161 -1.89454,3.99818 0.25499,4.68167 1.79843,0.57185 4.2109,0.17271 6.0844,0.17271 h 12.43542 c 1.90034,0 4.93432,0.5678 6.60295,-0.4916 1.895,-1.20314 1.49467,-4.0574 -0.78232,-4.47506 -5.19755,-0.95337 -11.37836,-0.0604 -16.66855,-0.0604 -2.38451,0 -5.65227,-0.57852 -7.92689,0.17271 m -5.83145,10.93979 c 0.0831,3.90273 3.83246,8.378377 7.9373,5.822247 2.95315,-1.838947 4.69317,-6.440497 4.7627,-9.790997 -1.05299,0 -2.6308,-0.29375 -3.60107,0.15965 -0.8988,0.41998 -1.51253,1.78398 -2.22385,2.47475 -2.01966,1.96131 -4.29134,2.15337 -6.87508,1.33435 m 15.08125,-3.96875 c -0.29405,2.27693 -0.91295,4.57233 -1.9807,6.61458 -0.96662,1.84884 -2.52136,3.646177 -1.58239,5.820827 0.79463,1.84036 4.34656,6.17505 6.47351,6.38511 2.34304,0.23142 6.51917,-4.8117 6.82159,-6.91427 0.27134,-1.88639 -0.94756,-3.425957 -1.72591,-5.027087 -1.02116,-2.10064 -1.87196,-4.53128 -1.92068,-6.87916 h -6.08542 m 8.20209,0 c 0.26361,3.22718 1.68793,7.68018 4.49893,9.563577 4.06708,2.72496 8.27671,-1.195597 8.46565,-5.330247 -1.90823,0.43622 -3.69579,0.86907 -5.55625,-0.0368 -1.88516,-0.91784 -2.14998,-2.83888 -3.62434,-3.92465 -0.86413,-0.63636 -2.75804,-0.27193 -3.78399,-0.27193"
           id="path10-9-5-1"
           sodipodi:nodetypes="ccsssssccsscssssccsscssssccssssssccscssccssssscccscssc" /></g></g></g></svg>
